<svg xmlns="http://www.w3.org/2000/svg" width="21.874" height="16.534" viewBox="0 0 21.874 16.534">
    <defs>
        <style>
            .cls-1{fill:#fff}
        </style>
    </defs>
    <path id="carbon-dioxide" d="M123.71 227.344c2.142-.142 2.436-.322 3.7.951 2.01-1 .8-4.6-1.459-3.843.111-1.684-2.913-4.646-5.131-.835.071.027 2.863 1.049 2.89 3.727zm-2.9-3.729v.014l.005-.011zm-1.721 7.093a1.076 1.076 0 0 0-.839.373c-.251.3-.318.621-.318 1.971s.065 1.675.318 1.971a1.12 1.12 0 0 0 1.67 0c.251-.3.326-.621.326-1.971s-.076-1.675-.326-1.971a1.059 1.059 0 0 0-.828-.373zm5.948-2.632l-2.422-.091c-.89-6.953-10.043-8.15-11.99 1.157l-.95.051c-4.99 2.558-3.029 8.252-.777 9.087v.014h16.247c3.857-1.065 4.7-8.033-.108-10.218zm-12.562 6.956a1.04 1.04 0 0 0 .831.365 1.118 1.118 0 0 0 1.119-.994h1.316a2.46 2.46 0 0 1-4.235 1.447c-.672-.709-.653-1.587-.653-2.8s-.019-2.088.653-2.8a2.46 2.46 0 0 1 4.235 1.447h-1.316a1.118 1.118 0 0 0-1.119-.994 1.044 1.044 0 0 0-.831.365c-.251.3-.326.63-.326 1.98s.078 1.691.329 1.984zm8.405.818a2.48 2.48 0 0 1-3.59 0c-.672-.709-.653-1.587-.653-2.8s-.019-2.088.653-2.8a2.48 2.48 0 0 1 3.59 0c.672.709.664 1.587.664 2.8s.011 2.091-.661 2.8zm3.868.043v.667h-2.336v-.667l1.435-1.76a.718.718 0 0 0 .2-.49.469.469 0 1 0-.933.011h-.7a1.12 1.12 0 0 1 1.171-1.185 1.106 1.106 0 0 1 1.165 1.179 1.324 1.324 0 0 1-.41.929l-1.074 1.316z" class="cls-1" transform="translate(-106.556 -221.76)"/>
</svg>
