<svg xmlns="http://www.w3.org/2000/svg" id="lock_2_" width="19.944" height="26.592" data-name="lock (2)" viewBox="0 0 19.944 26.592">
    <defs>
        <style>
            .cls-1{fill:#8a8a8a}
        </style>
    </defs>
    <g id="Group_1126" data-name="Group 1126">
        <path id="Path_1090" d="M83.39 9.972h-1.662V7.756a7.756 7.756 0 1 0-15.512 0v2.216h-1.662a.554.554 0 0 0-.554.554v13.85a2.218 2.218 0 0 0 2.216 2.216h15.512a2.218 2.218 0 0 0 2.216-2.216v-13.85a.554.554 0 0 0-.554-.554zm-7.759 11.573a.554.554 0 0 1-.551.615h-2.216a.554.554 0 0 1-.551-.615l.349-3.143a2.192 2.192 0 0 1-.907-1.782 2.216 2.216 0 1 1 4.432 0 2.192 2.192 0 0 1-.907 1.782zM78.4 9.972h-8.86V7.756a4.432 4.432 0 1 1 8.864 0z" class="cls-1" data-name="Path 1090" transform="translate(-64)"/>
    </g>
</svg>
