<svg xmlns="http://www.w3.org/2000/svg" id="man-user" width="20.33" height="26.729" viewBox="0 0 20.33 26.729">
    <defs>
        <style>
            .cls-1{fill:#8a8a8a}
        </style>
    </defs>
    <path id="Path_1091" d="M109.916 13.072c2.972 0 5.381-2.926 5.381-6.536S114.506 0 109.916 0s-5.381 2.926-5.381 6.536 2.409 6.536 5.381 6.536z" class="cls-1" data-name="Path 1091" transform="translate(-99.751)"/>
    <path id="Path_1092" d="M41.9 300.485c0-.22 0-.062 0 0z" class="cls-1" data-name="Path 1092" transform="translate(-41.895 -277.433)"/>
    <path id="Path_1093" d="M308.085 301.686c0-.06 0-.418 0 0z" class="cls-1" data-name="Path 1093" transform="translate(-287.757 -278.462)"/>
    <path id="Path_1094" d="M62.224 186.954c-.1-6.288-.921-8.08-7.206-9.214a4.415 4.415 0 0 1-5.893 0c-6.216 1.122-7.087 2.887-7.2 9.01-.009.5-.014.526-.015.468v.661s1.5 3.016 10.163 3.016 10.163-3.016 10.163-3.016v-.489a4.047 4.047 0 0 1-.012-.436z" class="cls-1" data-name="Path 1094" transform="translate(-41.907 -164.166)"/>
</svg>
