<svg xmlns="http://www.w3.org/2000/svg" width="9.537" height="22.161" viewBox="0 0 9.537 22.161">
    <defs>
        <style>
            .cls-1{fill:#fff}
        </style>
    </defs>
    <path id="thermometer-three-quarters-solid" d="M7.153 16.621a2.6 2.6 0 0 1-2.384 2.77 2.6 2.6 0 0 1-2.384-2.77 2.874 2.874 0 0 1 1.192-2.4v-7.3A1.3 1.3 0 0 1 4.769 5.54a1.3 1.3 0 0 1 1.192 1.385v7.3a2.874 2.874 0 0 1 1.192 2.396zm1.192-3.664a6.056 6.056 0 0 1 1.192 3.664c0 3.06-2.135 5.54-4.769 5.54h-.033C2.116 22.14-.013 19.635 0 16.592a6.052 6.052 0 0 1 1.192-3.635v-8.8A3.9 3.9 0 0 1 4.769 0a3.9 3.9 0 0 1 3.577 4.155zm-.6 3.664a4.277 4.277 0 0 0-1.192-2.878V4.155a1.952 1.952 0 0 0-1.784-2.077 1.952 1.952 0 0 0-1.788 2.077v9.587A4.284 4.284 0 0 0 1.789 16.6a3.27 3.27 0 0 0 2.959 3.481h.021a3.253 3.253 0 0 0 2.98-3.46z" class="cls-1"/>
</svg>
