<svg xmlns="http://www.w3.org/2000/svg" width="9.537" height="19.075" viewBox="0 0 9.537 19.075">
    <defs>
        <style>
            .cls-1{fill:#fff}
        </style>
    </defs>
    <path id="thermometer-three-quarters-solid" d="M7.153 14.306a2.384 2.384 0 1 1-3.577-2.065v-6.28a1.192 1.192 0 0 1 2.384 0v6.281a2.383 2.383 0 0 1 1.193 2.064zm1.192-3.154a4.768 4.768 0 0 1-3.577 7.922h-.033a4.768 4.768 0 0 1-3.543-7.922V3.577a3.577 3.577 0 0 1 7.153 0zm-.6 3.154a3.461 3.461 0 0 0-1.192-2.478V3.577a1.788 1.788 0 0 0-3.577 0v8.252a3.468 3.468 0 0 0-1.187 2.461 2.993 2.993 0 0 0 2.959 3h.021a2.984 2.984 0 0 0 2.98-2.984z" class="cls-1"/>
</svg>
