<svg xmlns="http://www.w3.org/2000/svg" width="11.605" height="19.966" viewBox="0 0 11.605 19.966">
    <defs>
        <style>
            .cls-1{fill:#fff}
        </style>
    </defs>
    <path id="tint-solid" d="M6.766.861a.969.969 0 0 0-1.927 0C3.3 7.013 0 8.685 0 13.021c0 3.839 2.6 6.945 5.8 6.945s5.8-3.106 5.8-6.945c0-4.358-3.29-5.98-4.839-12.16zM5.8 17.47c-2.036 0-3.693-1.96-3.693-4.368a.582.582 0 0 1 .528-.624.582.582 0 0 1 .528.624 2.913 2.913 0 0 0 2.637 3.12.633.633 0 0 1 0 1.248z" class="cls-1"/>
</svg>
