<svg xmlns="http://www.w3.org/2000/svg" width="91.865" height="80.369" viewBox="0 0 91.865 80.369">
    <defs>
        <style>
            .cls-1{fill:url(#linear-gradient)}
        </style>
        <linearGradient id="linear-gradient" x1=".5" x2=".5" y2="1" gradientUnits="objectBoundingBox">
            <stop offset="0" stop-color="#00be39"/>
            <stop offset="1" stop-color="#8de748"/>
        </linearGradient>
    </defs>
    <path id="wind-solid" d="M28.114 72.22H2.871A2.879 2.879 0 0 0 0 75.091v5.741A2.879 2.879 0 0 0 2.871 83.7h25.513a5.993 5.993 0 0 1 5.992 4.772 5.75 5.75 0 0 1-11.124 2.781 2.834 2.834 0 0 0-2.727-1.812H14.64a2.856 2.856 0 0 0-2.853 3.3 17.225 17.225 0 0 0 33.981-5.562C44.674 78.5 36.852 72.22 28.114 72.22zM2.871 66.479h60.283a17.228 17.228 0 1 0-16.9-20.507 2.828 2.828 0 0 0 2.835 3.283h5.885a2.818 2.818 0 0 0 2.726-1.812 5.75 5.75 0 0 1 11.124 2.781A5.979 5.979 0 0 1 62.831 55H2.871A2.879 2.879 0 0 0 0 57.867v5.741a2.879 2.879 0 0 0 2.871 2.871zm68.9 5.741H43.724a22.679 22.679 0 0 1 7.14 11.48h20.9A8.612 8.612 0 1 1 64.3 96.549a2.969 2.969 0 0 0-2.6-1.364h-6.063a2.875 2.875 0 0 0-2.745 3.786A20.071 20.071 0 1 0 71.766 72.22z" class="cls-1" transform="translate(0 -32.038)"/>
</svg>
