<svg xmlns="http://www.w3.org/2000/svg" width="20.365" height="17.817" viewBox="0 0 20.365 17.817">
    <defs>
        <style>
            .cls-1{fill:#fff}
        </style>
    </defs>
    <path id="wind-solid" d="M6.233 40.946H.636a.638.638 0 0 0-.636.636v1.273a.638.638 0 0 0 .636.636h5.656a1.329 1.329 0 0 1 1.329 1.059 1.275 1.275 0 0 1-2.466.617.628.628 0 0 0-.6-.4h-1.3a.633.633 0 0 0-.632.732 3.819 3.819 0 0 0 7.533-1.233 3.9 3.9 0 0 0-3.923-3.32zm-5.6-1.273H14a3.819 3.819 0 1 0-3.747-4.546.627.627 0 0 0 .628.728h1.3a.625.625 0 0 0 .6-.4 1.275 1.275 0 0 1 2.466.617 1.325 1.325 0 0 1-1.328 1.058H.636a.638.638 0 0 0-.636.634v1.273a.638.638 0 0 0 .636.636zm15.277 1.273H9.693a5.028 5.028 0 0 1 1.583 2.546h4.634a1.909 1.909 0 1 1-1.655 2.848.658.658 0 0 0-.577-.3h-1.344a.637.637 0 0 0-.609.839 4.45 4.45 0 1 0 4.184-5.93z" class="cls-1" transform="translate(0 -32.038)"/>
</svg>
