<svg xmlns="http://www.w3.org/2000/svg" width="92.895" height="81.27" viewBox="0 0 92.895 81.27">
    <defs>
        <style>
            .cls-1{fill:url(#linear-gradient)}
        </style>
        <linearGradient id="linear-gradient" x1=".5" x2=".5" y2="1" gradientUnits="objectBoundingBox">
            <stop offset="0" stop-color="#00be39"/>
            <stop offset="1" stop-color="#8de748"/>
        </linearGradient>
    </defs>
    <path id="wind-solid" d="M28.43 72.671H2.9a2.911 2.911 0 0 0-2.9 2.9v5.806a2.911 2.911 0 0 0 2.9 2.9h25.8a6.06 6.06 0 0 1 6.06 4.826 5.815 5.815 0 0 1-11.247 2.817 2.866 2.866 0 0 0-2.758-1.832H14.8a2.888 2.888 0 0 0-2.885 3.338A17.418 17.418 0 0 0 46.282 87.8c-1.107-8.779-9.017-15.129-17.852-15.129zM2.9 66.865h60.96a17.421 17.421 0 1 0-17.09-20.737 2.86 2.86 0 0 0 2.867 3.32h5.951a2.849 2.849 0 0 0 2.758-1.832A5.815 5.815 0 0 1 69.6 50.428a6.046 6.046 0 0 1-6.06 4.826H2.9a2.911 2.911 0 0 0-2.9 2.9v5.806a2.911 2.911 0 0 0 2.9 2.905zm69.668 5.806H44.214a22.934 22.934 0 0 1 7.221 11.611h21.136a8.709 8.709 0 1 1-7.547 12.99 3 3 0 0 0-2.631-1.379h-6.132a2.907 2.907 0 0 0-2.776 3.828 20.3 20.3 0 1 0 19.086-27.05z" class="cls-1" transform="translate(0 -32.038)"/>
</svg>
